# xmcd CD database file
#
# Track frame offsets:
#	150
#	28299
#	53119
#	70390
#	85832
#	109952
#	138315
#	149859
#	159723
#	176146
#	190334
#	216361
#
# Disc length: 3200 seconds
#
# Revision: 0
# Processed by: cddbd v1.5.2PL0 Copyright (c) Steve Scherf et al.
# Submitted via: CDex 1.70beta2
#
DISCID=c30c7e0c
DTITLE=Olaf Tarenskeen - Human Download
DYEAR=1900
DGENRE=Jazz
TTITLE0=Silk Route Samba
TTITLE1=Alice In Wonderland
TTITLE2=Childs Play(Part I)
TTITLE3=Childs PlayPart II)
TTITLE4=Wish Granted
TTITLE5=What I Mean Is This
TTITLE6=Who's Getting Married(Part !)
TTITLE7=Who's Getting Married(Part !I)
TTITLE8=Who's Getting Married(Part !II)
TTITLE9=Open Air
TTITLE10=Eternal Flame
TTITLE11=Human Download
EXTD=
EXTT0=
EXTT1=
EXTT2=
EXTT3=
EXTT4=
EXTT5=
EXTT6=
EXTT7=
EXTT8=
EXTT9=
EXTT10=
EXTT11=
PLAYORDER=
